<?xml version="1.0" encoding="utf-8"?>
<!-- Generator: Adobe Illustrator 18.0.0, SVG Export Plug-In . SVG Version: 6.00 Build 0)  -->
<!DOCTYPE svg PUBLIC "-//W3C//DTD SVG 1.1//EN" "http://www.w3.org/Graphics/SVG/1.1/DTD/svg11.dtd">
<svg version="1.1" id="Layer_1" xmlns="http://www.w3.org/2000/svg" xmlns:xlink="http://www.w3.org/1999/xlink" x="0px" y="0px"
	 viewBox="0 150.5 499.9 138.7" enable-background="new 0 150.5 499.9 138.7" xml:space="preserve">
<polygon fill="#ED1D24" points="55.8,204.5 13.7,288.9 0,288.9 41.8,204.5 "/>
<polygon fill="#ED1D24" points="82.3,151.1 73.1,169.6 59.4,169.3 68.3,151.1 "/>
<polygon fill="#ED1D24" points="0.9,204.2 30.4,204.2 0.9,263.3 "/>
<path fill="#ED1D24" d="M2.1,169h45l9.5-17.9H15.5c-5.7,0-13.4,4.2-13.4,9.8C2.1,160.9,2.1,169,2.1,169z"/>
<polygon fill="#ED1D24" points="62.9,240.3 83.5,288.9 25.1,288.9 67.1,204.5 80.8,204.5 "/>
<path fill="#ED1D24" d="M122.6,289.2c3.6-1.5,6-8.4,6-17c0-1.2-0.3-106.8,0-108.3c0.3-6-6-13.4-15.5-13.4H94L85,169h32.5l6,12.2H0.9
	v11h97.9l-23.6,46.8l21.5,49.8h14l-21.8-49.8l23.9-46.8h11l-23.6,47.4L122.6,289.2z"/>
<rect x="145.9" y="151.1" fill="#ED1D24" width="30.7" height="137.8"/>
<path fill="#ED1D24" d="M386.6,164.2c0-6-8.7-13.1-16.7-13.1h-37.3v13.1c0,0-0.6-0.3-1.8-4.2c-1.2-5.1-6.9-8.9-14.6-8.9h-71v111.3
	h-16.4l-21.5-52.2l30.1-59.1h-31.9l-29.8,59.1l31.9,78.8h252.7c10.7,0,21.5-5.1,26.6-9.8c18.5-18.2,13.1-35.8,8.9-44.2
	c-6.6-12.8-21.5-19.4-21.5-19.4s10.7-6.3,15.5-13.1c6.6-9.5,6-23.9-1.5-33.4c-9.2-11.9-19.1-17.6-38.5-17.9c-7.8-0.3-21.5,0-21.5,0
	h-30.7v100.8h30.7v-72.8c0,0,12.8-0.6,24.5,0c12.2,0.6,13.7,22.4-0.9,22.7c-7.8,0.3-16.7,0-16.7,0v25.7c0,0,11.6,0.3,16.4,0
	c13.4-0.9,19.7,33.4-0.3,34.9c-4.5,0.3-8.7,0-8.7,0H276.3v-82.6h25.7v72.2h30.7v-72.2h23.3v72.2h30.7v-72.2V164.2z"/>
</svg>
