<?xml version="1.0" encoding="UTF-8" standalone="no"?>
<!-- Generator: Adobe Illustrator 18.0.0, SVG Export Plug-In . SVG Version: 6.00 Build 0)  -->

<svg
   xmlns:dc="http://purl.org/dc/elements/1.1/"
   xmlns:cc="http://creativecommons.org/ns#"
   xmlns:rdf="http://www.w3.org/1999/02/22-rdf-syntax-ns#"
   xmlns:svg="http://www.w3.org/2000/svg"
   xmlns="http://www.w3.org/2000/svg"
   xmlns:sodipodi="http://sodipodi.sourceforge.net/DTD/sodipodi-0.dtd"
   xmlns:inkscape="http://www.inkscape.org/namespaces/inkscape"
   version="1.1"
   id="Layer_1"
   x="0px"
   y="0px"
   viewBox="0 0 79.199997 53.2"
   enable-background="new 0 0 182 53.2"
   xml:space="preserve"
   inkscape:version="0.91 r13725"
   sodipodi:docname="citybus.svg"
   width="79.199997"
   height="53.200001"><metadata
     id="metadata3541"><rdf:RDF><cc:Work
         rdf:about=""><dc:format>image/svg+xml</dc:format><dc:type
           rdf:resource="http://purl.org/dc/dcmitype/StillImage" /><dc:title></dc:title></cc:Work></rdf:RDF></metadata><defs
     id="defs3539" /><sodipodi:namedview
     pagecolor="#ffffff"
     bordercolor="#666666"
     borderopacity="1"
     objecttolerance="10"
     gridtolerance="10"
     guidetolerance="10"
     inkscape:pageopacity="0"
     inkscape:pageshadow="2"
     inkscape:window-width="1916"
     inkscape:window-height="1041"
     id="namedview3537"
     showgrid="false"
     fit-margin-top="0"
     fit-margin-left="0"
     fit-margin-right="0"
     fit-margin-bottom="0"
     inkscape:zoom="4.97"
     inkscape:cx="28.444231"
     inkscape:cy="26.6"
     inkscape:window-x="0"
     inkscape:window-y="18"
     inkscape:window-maximized="0"
     inkscape:current-layer="Layer_1" /><path
     style="fill:#ef3e33"
     inkscape:connector-curvature="0"
     id="path3535"
     d="m 78.5,38.1 -52.3,0 -1.6,9.1 L 7.6,26.6 31.8,6 l -1.6,9 36.6,0 c -0.2,-0.4 -0.4,-0.7 -0.5,-1.1 l 12.9,0 C 79,13.5 78.8,13.2 78.6,12.8 l -29.2,0 C 49,12.1 48.5,11.3 48,10.6 l 16.2,0 C 63.9,10.2 63.6,9.9 63.4,9.5 l 12.9,0 C 76,9.1 75.7,8.8 75.4,8.4 l -29.2,0 C 45.5,7.6 44.8,6.9 44,6.2 l 16.2,0 C 59.8,5.8 59.3,5.5 58.9,5.1 l 12.9,0 C 71.3,4.7 70.8,4.4 70.3,4 L 41.1,4 C 39.8,3.2 38.5,2.4 37.1,1.8 l 16.2,0 c -1,-0.4 -2,-0.8 -3,-1.1 l 12.9,0 C 60.8,0.4 58.3,0 55.7,0 L 26.6,0 C 11.9,0 0,11.9 0,26.6 0,41.3 11.9,53.2 26.6,53.2 36.3,53.2 44.7,48 49.4,40.3 l 28.5,0 z"
     sodipodi:nodetypes="cccccccccccccccccccccccccccssssccc" /></svg>