<?xml version="1.0" encoding="UTF-8" standalone="no"?>
<!-- Generator: Adobe Illustrator 18.0.0, SVG Export Plug-In . SVG Version: 6.00 Build 0)  -->

<svg
   xmlns:dc="http://purl.org/dc/elements/1.1/"
   xmlns:cc="http://creativecommons.org/ns#"
   xmlns:rdf="http://www.w3.org/1999/02/22-rdf-syntax-ns#"
   xmlns:svg="http://www.w3.org/2000/svg"
   xmlns="http://www.w3.org/2000/svg"
   xmlns:sodipodi="http://sodipodi.sourceforge.net/DTD/sodipodi-0.dtd"
   xmlns:inkscape="http://www.inkscape.org/namespaces/inkscape"
   version="1.1"
   id="Layer_1"
   x="0px"
   y="0px"
   viewBox="0 0 251.3 251.69999"
   enable-background="new 0 0 375.6 375.6"
   xml:space="preserve"
   inkscape:version="0.91 r13725"
   sodipodi:docname="Hong_Kong_Tramways_Logo_(2017).svg"
   width="251.3"
   height="251.7"><metadata
     id="metadata3434"><rdf:RDF><cc:Work
         rdf:about=""><dc:format>image/svg+xml</dc:format><dc:type
           rdf:resource="http://purl.org/dc/dcmitype/StillImage" /><dc:title></dc:title></cc:Work></rdf:RDF></metadata><defs
     id="defs3432" /><sodipodi:namedview
     pagecolor="#ffffff"
     bordercolor="#666666"
     borderopacity="1"
     objecttolerance="10"
     gridtolerance="10"
     guidetolerance="10"
     inkscape:pageopacity="0"
     inkscape:pageshadow="2"
     inkscape:window-width="1916"
     inkscape:window-height="1041"
     id="namedview3430"
     showgrid="false"
     inkscape:snap-center="false"
     inkscape:snap-object-midpoints="false"
     fit-margin-top="0"
     fit-margin-left="0"
     fit-margin-right="0"
     fit-margin-bottom="0"
     inkscape:zoom="2.2896698"
     inkscape:cx="56.393724"
     inkscape:cy="69.919468"
     inkscape:window-x="0"
     inkscape:window-y="18"
     inkscape:window-maximized="0"
     inkscape:current-layer="Layer_1" /><path
     d="m 251.3,126 0,0 C 251.3,56.4 195,0 125.5,0 55.9,0 0,56.4 0,126 0,195.2 55.9,251.7 125.5,251.7 195,251.7 251.3,195.3 251.3,126 Z"
     id="path3406"
     inkscape:connector-curvature="0"
     style="clip-rule:evenodd;fill:#ffffff;fill-rule:evenodd" /><path
     d="m 113,105.8 0,0 0,7.4 c 0,1.2 0.8,2.3 1.9,2.3 l 10.5,0 10.5,0 c 1.2,0 1.9,-1.2 1.9,-2.3 l 0,-7.4 c 0,-1.2 -0.8,-1.9 -1.9,-1.9 -3.5,0 -7,-0.4 -10.5,-0.4 -3.5,0 -7,0.4 -10.5,0.4 -1.1,0 -1.9,0.7 -1.9,1.9 z"
     id="path3408"
     inkscape:connector-curvature="0"
     style="clip-rule:evenodd;fill:#007549;fill-rule:evenodd" /><path
     d="m 131.7,187.1 0,0 c 0,3.5 -2.7,6.2 -6.2,6.2 -3.5,0 -6.2,-2.7 -6.2,-6.2 0,-3.5 2.7,-6.6 6.2,-6.6 3.4,0 6.2,3.1 6.2,6.6 z"
     id="path3410"
     inkscape:connector-curvature="0"
     style="clip-rule:evenodd;fill:#007549;fill-rule:evenodd" /><path
     d="m 161.2,199.9 0,0 c 0,-1.2 -1.2,-1.9 -2.3,-1.9 -10.5,3.5 -21.8,5.1 -33.4,5.1 -11.7,0 -22.9,-1.6 -33.4,-5.1 -1.2,0 -2.3,0.8 -2.3,1.9 0,0.8 0.4,1.6 1.2,1.9 10.9,3.1 22.5,5.1 34.6,5.1 12.1,0 23.7,-1.9 34.6,-5.1 0.6,-0.3 1,-1.1 1,-1.9 z"
     id="path3412"
     inkscape:connector-curvature="0"
     style="clip-rule:evenodd;fill:#007549;fill-rule:evenodd" /><path
     d="m 101.4,49.4 0,0 c -3.1,0.4 -5.8,0.8 -8.9,1.6 -1.6,0 -2.7,1.6 -2.7,3.1 l 0,24.5 c 0,1.9 1.6,3.5 3.9,3.1 2.7,0 5.8,-0.4 8.5,-0.8 1.9,0 3.1,-1.6 3.1,-3.5 l 0,-24.9 c 0,-1.9 -1.6,-3.5 -3.9,-3.1 z"
     id="path3414"
     inkscape:connector-curvature="0"
     style="clip-rule:evenodd;fill:#007549;fill-rule:evenodd" /><path
     d="m 140.6,51.4 0,0 c 0,-1.6 -1.2,-3.1 -3.1,-3.1 -3.9,-0.4 -7.8,-0.8 -12,-0.8 -3.9,0 -8.2,0.4 -12,0.8 -1.9,0 -3.1,1.6 -3.1,3.1 l 0,25.6 c 0,1.9 1.6,3.5 3.5,3.1 l 11.7,0 11.7,0 c 1.9,0.4 3.5,-1.2 3.5,-3.1 l 0,-25.6 z"
     id="path3416"
     inkscape:connector-curvature="0"
     style="clip-rule:evenodd;fill:#007549;fill-rule:evenodd" /><path
     d="m 145.6,52.5 0,0 0,24.9 c 0,1.9 1.2,3.5 3.1,3.5 3.1,0.4 5.8,0.8 8.9,0.8 1.9,0.4 3.5,-1.2 3.5,-3.1 l 0,-24.5 c 0,-1.6 -0.8,-3.1 -2.7,-3.1 -2.7,-0.8 -5.8,-1.2 -8.9,-1.6 -2.3,-0.4 -3.9,1.2 -3.9,3.1 z"
     id="path3418"
     inkscape:connector-curvature="0"
     style="clip-rule:evenodd;fill:#007549;fill-rule:evenodd" /><path
     d="m 106.8,127.2 0,0 -13.6,0 c -1.9,0 -3.5,1.6 -3.5,3.5 l 0,24.9 c 0,1.9 1.2,3.1 3.1,3.5 4.3,0.4 9.3,0.8 14,0.8 1.9,0 3.5,-1.6 3.5,-3.5 l 0,-25.7 c 0,-1.9 -1.6,-3.5 -3.5,-3.5 z"
     id="path3420"
     inkscape:connector-curvature="0"
     style="clip-rule:evenodd;fill:#007549;fill-rule:evenodd" /><path
     d="m 140.6,130.7 0,0 0,25.7 c 0,1.9 1.6,3.5 3.5,3.5 5,-0.4 9.7,-0.4 14,-0.8 1.9,-0.4 3.1,-1.6 3.1,-3.5 l 0,-24.9 c 0,-1.9 -1.2,-3.5 -3.1,-3.5 l -14,0 c -1.9,0 -3.5,1.6 -3.5,3.5 z"
     id="path3422"
     inkscape:connector-curvature="0"
     style="clip-rule:evenodd;fill:#007549;fill-rule:evenodd" /><path
     d="m 132.4,127.2 0,0 -14,0 c -1.9,0 -3.5,1.6 -3.5,3.5 l 0,26.1 c 0,1.9 1.6,3.5 3.5,3.5 l 7,0 7,0 c 1.9,0 3.5,-1.6 3.5,-3.5 l 0,-26.1 c 0,-1.9 -1.5,-3.5 -3.5,-3.5 z"
     id="path3424"
     inkscape:connector-curvature="0"
     style="clip-rule:evenodd;fill:#007549;fill-rule:evenodd" /><path
     d="m 115,3.1 0,0 C 114.6,1.5 112.7,0.8 111.1,0.8 88.2,3.5 67.2,12.1 49.7,25.3 19.4,48.2 0,84.8 0,126 c 0,51 30.3,95.3 74.2,114.8 5.4,2.3 12,0.8 15.5,-3.9 l 12.4,-17.1 c -5.8,-0.8 -11.3,-1.9 -16.7,-3.5 -2.3,-0.8 -3.5,-2.7 -3.5,-4.7 l 0,-168.8 c 0,-1.9 1.2,-3.9 3.5,-4.3 6.6,-1.9 13.2,-3.5 20.2,-4.3 l 0.8,-7 c 0,-1.2 1.2,-1.9 2.3,-1.9 l 13.6,0 L 115,3.1 Z"
     id="path3426"
     inkscape:connector-curvature="0"
     style="clip-rule:evenodd;fill:#007549;fill-rule:evenodd" /><path
     d="m 201.2,25.3 0,0 C 180.2,9.3 153.8,0 125.4,0 l -4.3,0 c -1.6,0 -2.3,1.6 -1.9,3.1 l 7.4,22.2 15.5,0 c 1.2,0 2.3,0.8 2.3,1.9 l 0.8,7 c 7,0.8 14,2.3 20.6,4.3 1.9,0.4 3.1,2.3 3.1,4.3 l 0,168.8 c 0,2.3 -1.2,3.9 -3.1,4.7 -5.4,1.6 -11.3,2.7 -17.1,3.5 l 12.4,17.1 c 3.5,4.7 10.1,6.2 15.5,3.9 43.9,-19.5 74.6,-63.8 74.6,-114.8 0.1,-41.2 -19.7,-77.8 -50,-100.7 z"
     id="path3428"
     inkscape:connector-curvature="0"
     style="clip-rule:evenodd;fill:#007549;fill-rule:evenodd" /></svg>