<?xml version="1.0" encoding="UTF-8" standalone="no"?>
<!-- Generator: Adobe Illustrator 18.0.0, SVG Export Plug-In . SVG Version: 6.00 Build 0)  -->

<svg
   xmlns:dc="http://purl.org/dc/elements/1.1/"
   xmlns:cc="http://creativecommons.org/ns#"
   xmlns:rdf="http://www.w3.org/1999/02/22-rdf-syntax-ns#"
   xmlns:svg="http://www.w3.org/2000/svg"
   xmlns="http://www.w3.org/2000/svg"
   xmlns:sodipodi="http://sodipodi.sourceforge.net/DTD/sodipodi-0.dtd"
   xmlns:inkscape="http://www.inkscape.org/namespaces/inkscape"
   version="1.1"
   id="Layer_1"
   x="0px"
   y="0px"
   viewBox="0 0 793.46111 251.7"
   enable-background="new 0 0 375.6 458.4"
   xml:space="preserve"
   inkscape:version="0.91 r13725"
   sodipodi:docname="hktramways.svg"
   width="223.93236mm"
   height="71.035332mm"><metadata
     id="metadata3471"><rdf:RDF><cc:Work
         rdf:about=""><dc:format>image/svg+xml</dc:format><dc:type
           rdf:resource="http://purl.org/dc/dcmitype/StillImage" /><dc:title></dc:title></cc:Work></rdf:RDF></metadata><defs
     id="defs3469" /><sodipodi:namedview
     pagecolor="#ffffff"
     bordercolor="#666666"
     borderopacity="1"
     objecttolerance="10"
     gridtolerance="10"
     guidetolerance="10"
     inkscape:pageopacity="0"
     inkscape:pageshadow="2"
     inkscape:window-width="1916"
     inkscape:window-height="1041"
     id="namedview3467"
     showgrid="false"
     units="mm"
     fit-margin-top="0"
     fit-margin-left="0"
     fit-margin-right="0"
     fit-margin-bottom="0"
     inkscape:zoom="1.9459048"
     inkscape:cx="396.73051"
     inkscape:cy="125.84986"
     inkscape:window-x="0"
     inkscape:window-y="18"
     inkscape:window-maximized="0"
     inkscape:current-layer="Layer_1" /><g
     id="g3489"
     transform="translate(-62.100122,0)"><path
       style="clip-rule:evenodd;fill:#ffffff;fill-rule:evenodd"
       inkscape:connector-curvature="0"
       id="path3441"
       d="m 313.4,126 0,0 C 313.4,56.4 257.1,0 187.6,0 118,0 62.1,56.4 62.1,126 c 0,69.2 55.9,125.7 125.5,125.7 69.5,0 125.8,-56.4 125.8,-125.7 z" /><path
       style="clip-rule:evenodd;fill:#007549;fill-rule:evenodd"
       inkscape:connector-curvature="0"
       id="path3443"
       d="m 175.1,105.8 0,0 0,7.4 c 0,1.2 0.8,2.3 1.9,2.3 l 10.5,0 10.5,0 c 1.2,0 1.9,-1.2 1.9,-2.3 l 0,-7.4 c 0,-1.2 -0.8,-1.9 -1.9,-1.9 -3.5,0 -7,-0.4 -10.5,-0.4 -3.5,0 -7,0.4 -10.5,0.4 -1.1,0 -1.9,0.7 -1.9,1.9 z" /><path
       style="clip-rule:evenodd;fill:#007549;fill-rule:evenodd"
       inkscape:connector-curvature="0"
       id="path3445"
       d="m 193.8,187.1 0,0 c 0,3.5 -2.7,6.2 -6.2,6.2 -3.5,0 -6.2,-2.7 -6.2,-6.2 0,-3.5 2.7,-6.6 6.2,-6.6 3.4,0 6.2,3.1 6.2,6.6 z" /><path
       style="clip-rule:evenodd;fill:#007549;fill-rule:evenodd"
       inkscape:connector-curvature="0"
       id="path3447"
       d="m 223.3,199.9 0,0 c 0,-1.2 -1.2,-1.9 -2.3,-1.9 -10.5,3.5 -21.8,5.1 -33.4,5.1 -11.7,0 -22.9,-1.6 -33.4,-5.1 -1.2,0 -2.3,0.8 -2.3,1.9 0,0.8 0.4,1.6 1.2,1.9 10.9,3.1 22.5,5.1 34.6,5.1 12.1,0 23.7,-1.9 34.6,-5.1 0.6,-0.3 1,-1.1 1,-1.9 z" /><path
       style="clip-rule:evenodd;fill:#007549;fill-rule:evenodd"
       inkscape:connector-curvature="0"
       id="path3449"
       d="m 163.5,49.4 0,0 c -3.1,0.4 -5.8,0.8 -8.9,1.6 -1.6,0 -2.7,1.6 -2.7,3.1 l 0,24.5 c 0,1.9 1.6,3.5 3.9,3.1 2.7,0 5.8,-0.4 8.5,-0.8 1.9,0 3.1,-1.6 3.1,-3.5 l 0,-24.9 c 0,-1.9 -1.6,-3.5 -3.9,-3.1 z" /><path
       style="clip-rule:evenodd;fill:#007549;fill-rule:evenodd"
       inkscape:connector-curvature="0"
       id="path3451"
       d="m 202.7,51.4 0,0 c 0,-1.6 -1.2,-3.1 -3.1,-3.1 -3.9,-0.4 -7.8,-0.8 -12,-0.8 -3.9,0 -8.2,0.4 -12,0.8 -1.9,0 -3.1,1.6 -3.1,3.1 l 0,25.6 c 0,1.9 1.6,3.5 3.5,3.1 l 11.7,0 11.7,0 c 1.9,0.4 3.5,-1.2 3.5,-3.1 l 0,-25.6 z" /><path
       style="clip-rule:evenodd;fill:#007549;fill-rule:evenodd"
       inkscape:connector-curvature="0"
       id="path3453"
       d="m 207.7,52.5 0,0 0,24.9 c 0,1.9 1.2,3.5 3.1,3.5 3.1,0.4 5.8,0.8 8.9,0.8 1.9,0.4 3.5,-1.2 3.5,-3.1 l 0,-24.5 c 0,-1.6 -0.8,-3.1 -2.7,-3.1 -2.7,-0.8 -5.8,-1.2 -8.9,-1.6 -2.3,-0.4 -3.9,1.2 -3.9,3.1 z" /><path
       style="clip-rule:evenodd;fill:#007549;fill-rule:evenodd"
       inkscape:connector-curvature="0"
       id="path3455"
       d="m 168.9,127.2 0,0 -13.6,0 c -1.9,0 -3.5,1.6 -3.5,3.5 l 0,24.9 c 0,1.9 1.2,3.1 3.1,3.5 4.3,0.4 9.3,0.8 14,0.8 1.9,0 3.5,-1.6 3.5,-3.5 l 0,-25.7 c 0,-1.9 -1.6,-3.5 -3.5,-3.5 z" /><path
       style="clip-rule:evenodd;fill:#007549;fill-rule:evenodd"
       inkscape:connector-curvature="0"
       id="path3457"
       d="m 202.7,130.7 0,0 0,25.7 c 0,1.9 1.6,3.5 3.5,3.5 5,-0.4 9.7,-0.4 14,-0.8 1.9,-0.4 3.1,-1.6 3.1,-3.5 l 0,-24.9 c 0,-1.9 -1.2,-3.5 -3.1,-3.5 l -14,0 c -1.9,0 -3.5,1.6 -3.5,3.5 z" /><path
       style="clip-rule:evenodd;fill:#007549;fill-rule:evenodd"
       inkscape:connector-curvature="0"
       id="path3459"
       d="m 194.5,127.2 0,0 -14,0 c -1.9,0 -3.5,1.6 -3.5,3.5 l 0,26.1 c 0,1.9 1.6,3.5 3.5,3.5 l 7,0 7,0 c 1.9,0 3.5,-1.6 3.5,-3.5 l 0,-26.1 c 0,-1.9 -1.5,-3.5 -3.5,-3.5 z" /><path
       style="clip-rule:evenodd;fill:#007549;fill-rule:evenodd"
       inkscape:connector-curvature="0"
       id="path3461"
       d="m 177.1,3.1 0,0 C 176.7,1.5 174.8,0.8 173.2,0.8 150.3,3.5 129.3,12.1 111.8,25.3 81.5,48.2 62.1,84.8 62.1,126 c 0,51 30.3,95.3 74.2,114.8 5.4,2.3 12,0.8 15.5,-3.9 l 12.4,-17.1 c -5.8,-0.8 -11.3,-1.9 -16.7,-3.5 -2.3,-0.8 -3.5,-2.7 -3.5,-4.7 l 0,-168.8 c 0,-1.9 1.2,-3.9 3.5,-4.3 6.6,-1.9 13.2,-3.5 20.2,-4.3 l 0.8,-7 c 0,-1.2 1.2,-1.9 2.3,-1.9 l 13.6,0 -7.3,-22.2 z" /><path
       style="clip-rule:evenodd;fill:#007549;fill-rule:evenodd"
       inkscape:connector-curvature="0"
       id="path3463"
       d="m 263.3,25.3 0,0 C 242.3,9.3 215.9,0 187.5,0 l -4.3,0 c -1.6,0 -2.3,1.6 -1.9,3.1 l 7.4,22.2 15.5,0 c 1.2,0 2.3,0.8 2.3,1.9 l 0.8,7 c 7,0.8 14,2.3 20.6,4.3 1.9,0.4 3.1,2.3 3.1,4.3 l 0,168.8 c 0,2.3 -1.2,3.9 -3.1,4.7 -5.4,1.6 -11.3,2.7 -17.1,3.5 l 12.4,17.1 c 3.5,4.7 10.1,6.2 15.5,3.9 43.9,-19.5 74.6,-63.8 74.6,-114.8 0.1,-41.2 -19.7,-77.8 -50,-100.7 z" /></g><path
     inkscape:connector-curvature="0"
     style="clip-rule:evenodd;fill:#007549;fill-rule:evenodd"
     d="m 529.81778,232.6482 0,4.616 5.01173,0 0,-4.616 -5.01173,0 z m 114.8741,-6.9901 0,1.187 148.63734,0 0,-1.187 -148.63734,0 z m -346.73248,0 0,1.187 148.6373,0 0,-1.187 -148.6373,0 z m 325.36669,-7.2538 0,10.0235 -7.91325,0 7.91325,-10.0235 z m -26.90507,-2.2421 c 0.79133,0 1.84643,0.3957 2.63775,0.7914 0.79133,0.3956 1.18699,1.1869 1.97832,1.9783 0.39566,0.7913 0.79132,1.8464 1.0551,2.6377 0.39566,1.187 0.39566,2.2421 0.39566,3.4291 0,1.5827 0,2.6378 -0.39566,3.4291 -0.39567,1.187 -0.79133,2.2421 -1.0551,3.0334 -0.79133,0.7913 -1.18699,1.187 -1.97832,1.5826 -0.79132,0.7914 -1.58265,0.7914 -2.63775,0.7914 -0.79133,0 -1.97831,0 -2.63775,-0.7914 -0.79133,-0.3956 -1.0551,-0.7913 -1.84643,-1.9783 -0.39566,-0.7913 -0.79132,-1.5826 -1.18699,-2.6377 -0.39566,-1.187 -0.39566,-2.2421 -0.39566,-3.4291 0,-1.187 0,-2.2421 0.39566,-3.4291 0.39567,-1.187 0.79133,-1.8464 1.18699,-2.6377 0.79133,-0.7914 1.0551,-1.5827 1.84643,-1.9783 0.65944,-0.3957 1.45076,-0.7914 2.63775,-0.7914 z m -24.39921,0 c 1.97832,0 3.03342,0.3957 3.82474,1.187 1.18699,1.187 1.58265,1.9783 1.58265,3.4291 0,0.3957 0,1.187 -0.39566,1.5826 -0.39566,0.7914 -0.39566,1.187 -1.18699,1.5827 -0.39566,0.3957 -0.79132,0.7913 -1.45076,0.7913 -0.39566,0.3957 -1.0551,0.3957 -1.84643,0.3957 -1.58265,0 -2.63775,-0.3957 -3.82474,-1.187 -0.79132,-0.7913 -1.18699,-1.9783 -1.18699,-3.0334 0,-0.7913 0,-1.187 0.39567,-1.9783 0,-0.3957 0.39566,-0.7914 0.79132,-1.5827 0.39566,-0.3956 1.0551,-0.7913 1.45077,-0.7913 0.79132,-0.3957 1.0551,-0.3957 1.84642,-0.3957 l 0,0 z m 51.69994,-3.429 -13.71631,16.0902 0.79133,3.0335 12.52932,0 0,5.4073 3.82474,0 0,-5.4073 3.42908,0 0,-3.4291 -3.42908,0 0,-15.6946 -3.42908,0 0,0 z m -68.71344,0 -6.85816,1.9783 1.05511,3.8247 4.2204,-1.5826 0,20.3106 4.08851,0 0,-24.531 -2.50586,0 0,0 z m -48.27086,0 0,4.2204 7.64948,0 0,20.3106 4.08851,0 0,-20.3106 8.04515,0 0,-4.2204 -19.78314,0 z m -43.78669,0 0,24.531 18.20049,0 0,-3.8247 -14.11197,0 0,-6.4625 12.13366,0 0,-3.8247 -12.13366,0 0,-6.1987 13.71631,0 0,-4.2204 -17.80483,0 z m 133.47026,-0.3957 c -1.58265,0 -3.03342,0.3957 -4.2204,1.187 -1.58266,0.7913 -2.63776,1.5826 -3.42908,2.6377 -1.18699,1.187 -1.58265,2.2421 -2.24209,3.8248 -0.39566,1.5826 -0.79133,3.429 -0.79133,5.0117 0,1.9783 0.39567,3.4291 0.79133,5.0117 0.79132,1.5827 1.0551,3.0334 2.24209,4.2204 0.79132,1.187 1.84642,1.9783 3.42908,2.6378 1.18698,0.3956 2.63775,0.7913 4.2204,0.7913 1.58265,0 3.03341,-0.3957 4.08852,-0.7913 1.58265,-0.7913 2.63775,-1.5827 3.42907,-2.6378 1.0551,-1.187 1.84643,-2.6377 2.24209,-4.2204 0.39567,-1.5826 0.79133,-3.0334 0.79133,-5.0117 0,-1.5827 -0.39566,-3.4291 -0.79133,-5.0117 -0.39566,-1.5827 -1.18699,-2.6378 -2.24209,-3.8248 -0.79132,-1.187 -1.97831,-1.9783 -3.03341,-2.6377 -1.45077,-0.7913 -2.90153,-1.187 -4.48418,-1.187 z m -24.39921,0 c -1.0551,0 -2.24209,0.3957 -3.42908,0.7913 -1.18698,0.3957 -2.24209,1.187 -3.03341,1.9783 -0.79133,0.7914 -1.58265,1.5827 -1.97832,2.6378 -0.39566,0.7913 -0.39566,1.9783 -0.39566,3.0334 l 0,0.3957 c 0,1.1869 0,1.9783 0.39566,3.0334 0.39567,0.7913 1.18699,1.9783 1.97832,2.2421 0.79132,0.7913 1.45076,1.187 2.63775,1.5826 1.18699,0.3957 2.24209,0.7913 3.42908,0.7913 1.58265,0 2.63775,-0.3956 3.42908,-0.7913 1.18699,-0.3956 1.97831,-1.187 2.24209,-1.9783 0,1.187 0,2.2421 -0.39567,3.0334 -0.39566,1.187 -0.79132,1.9783 -1.18699,2.6378 -0.39566,0.3956 -1.0551,1.187 -1.84642,1.5826 -0.79133,0.3957 -1.58265,0.3957 -2.24209,0.3957 -1.18699,0 -1.97832,0 -3.03342,-0.3957 -0.79132,-0.3956 -1.58265,-1.187 -2.63775,-1.9783 l -2.24209,3.4291 c 1.18699,0.7913 2.24209,1.5826 3.42908,1.9783 1.0551,0.7913 2.63775,0.7913 4.2204,0.7913 1.97832,0 3.42908,-0.3956 4.61607,-0.7913 1.18699,-0.7913 2.24209,-1.5827 3.42908,-2.6378 0.79132,-1.1869 1.45076,-2.6377 1.84642,-4.2204 0.39567,-1.9783 0.79133,-3.429 0.79133,-5.4073 l 0,-0.3957 c 0,-2.2421 -0.39566,-4.2204 -0.79133,-5.8031 -0.79132,-1.187 -1.45076,-2.6377 -2.24208,-3.429 -0.79133,-0.7914 -1.84643,-1.5827 -2.63776,-1.9784 -1.31887,-0.1318 -2.76964,-0.5275 -4.35229,-0.5275 l 0,0 z m -78.20935,0 c -1.18699,0 -2.24209,0.3957 -3.42908,0.7913 -0.79132,0.3957 -1.84642,0.7913 -2.63775,1.5827 -0.79133,0.3956 -1.18699,1.187 -1.58265,1.9783 -0.39566,1.187 -0.79133,1.9783 -0.79133,3.0334 0,1.187 0.39567,2.2421 0.79133,3.0334 0.39566,0.7913 0.79132,1.187 1.58265,1.9783 0.79133,0.3957 1.58265,1.187 2.24209,1.5827 1.18699,0.3956 2.24209,0.3956 3.82474,0.7913 1.18699,0.3957 1.84643,0.7913 2.63775,0.7913 0.79133,0.3957 1.18699,0.7914 1.58265,0.7914 0.39567,0.3956 0.79133,0.7913 0.79133,1.1869 0.39566,0.3957 0.39566,0.7914 0.39566,1.187 0,1.187 -0.39566,1.9783 -1.18699,2.2421 -0.79132,0.3957 -1.84642,0.7913 -3.03341,0.7913 -1.58265,0 -3.03342,-0.3956 -4.22041,-0.7913 -1.18698,-0.3956 -2.24208,-1.187 -3.42907,-2.2421 l -2.63776,3.0334 c 1.58266,1.187 3.03342,2.2421 4.61607,3.0335 1.84643,0.3956 3.82474,0.7913 5.27551,0.7913 1.58265,0 2.63775,0 3.82474,-0.3957 0.79132,-0.3956 1.84642,-0.7913 2.63775,-1.5826 0.79132,-0.7914 1.18699,-1.5827 1.45076,-2.2421 0.79133,-0.7913 0.79133,-1.9783 0.79133,-3.0334 0,-1.187 0,-1.9783 -0.39567,-2.6378 -0.39566,-0.7913 -0.79132,-1.5826 -1.58265,-1.9783 -0.79132,-0.7913 -1.58265,-1.187 -2.24209,-1.5826 -1.18698,-0.3957 -2.24209,-0.7914 -3.42907,-1.187 -1.18699,-0.3957 -2.24209,-0.3957 -3.03342,-0.7914 -0.79132,-0.3956 -1.18699,-0.3956 -1.84643,-0.7913 -0.39566,-0.3957 -0.79132,-0.7913 -0.79132,-1.187 0,-0.3956 -0.39566,-0.7913 -0.39566,-1.187 0,-0.7913 0.39566,-1.5826 1.18698,-1.9783 0.79133,-0.7913 1.84643,-1.187 3.03342,-1.187 1.18699,0 2.24209,0.3957 3.03341,0.7914 1.18699,0.3956 2.24209,1.1869 3.42908,1.9783 l 2.24209,-3.0334 c -1.18699,-1.187 -2.63775,-1.9784 -3.82474,-2.2421 -1.58265,-0.9232 -3.03341,-1.3189 -4.87984,-1.3189 z m 199.94161,-63.3061 5.67117,14.5077 -11.86988,0 6.19871,-14.5077 z m -172.64088,0 6.06683,14.5077 -11.86988,0 5.80305,-14.5077 z m -56.316,-2.6377 9.89157,0 c 4.87984,0 8.04514,2.2421 8.04514,6.4625 0,3.8247 -3.03341,6.4625 -7.64948,6.4625 l -10.28723,0 0,-12.925 z m 249.79513,-8.8365 c -0.79133,0 -1.58265,0.7913 -0.79133,1.5827 l 15.9584,25.7181 0,16.8816 c 0,0.7913 0.79133,1.187 1.18699,1.187 l 7.91326,0 c 0.39566,0 0.79132,-0.3957 0.79132,-1.187 l 0,-16.8816 16.35407,-25.7181 c 0.39566,-0.7914 0,-1.5827 -0.79133,-1.5827 l -8.70458,0 c -0.39566,0 -0.79133,0 -1.18699,0.3957 L 735.0349,155.6258 724.352,137.9529 c 0,-0.3957 -0.39566,-0.3957 -0.79133,-0.3957 l -8.96835,0 0,0 z m -161.56232,0 c -0.39567,0 -1.0551,0.3957 -1.0551,0.7913 l 0,43.3911 c 0,0.7913 0.79132,1.187 1.0551,1.187 l 7.64948,0 c 0.79132,0 1.18699,-0.3957 1.18699,-1.187 l 0,-28.3559 12.52932,19.1237 12.92498,-19.1237 0,28.3559 c 0,0.7913 0.39567,1.187 0.79133,1.187 l 7.91326,0 c 0.39566,0 0.79132,-0.3957 0.79132,-1.187 l 0,-43.3911 c 0,-0.3956 -0.39566,-0.7913 -0.79132,-0.7913 l -9.10025,0 c -0.39566,0 -0.79132,0 -0.79132,0.3957 l -11.86989,18.728 -11.34233,-18.728 c 0,-0.3957 -0.39567,-0.3957 -0.79133,-0.3957 l -9.10024,0 0,0 z m -96.9374,0 c -0.39566,0 -1.18698,0.3957 -1.18698,0.7913 l 0,43.3911 c 0,0.7913 0.79132,1.187 1.18698,1.187 l 8.04515,0 c 0.39566,0 0.79132,-0.3957 0.79132,-1.187 l 0,-13.4526 8.04515,0 9.10024,14.2439 c 0.39567,0 0.79133,0.3957 0.79133,0.3957 l 9.49591,0 c 0.79132,0 1.18698,-1.187 0.79132,-1.5827 l -9.89157,-14.6395 c 5.67117,-2.2421 9.49591,-6.8582 9.49591,-14.2439 0,-4.2204 -1.58265,-8.0451 -3.82474,-10.2872 -3.03342,-3.0334 -7.64948,-4.6161 -13.32065,-4.6161 l -19.51937,0 0,0 z m -44.84178,0 c -0.39567,0 -0.79133,0.3957 -0.79133,0.7913 l 0,7.2539 c 0,0.7913 0.39566,1.1869 0.79133,1.1869 l 12.92498,0 0,34.9503 c 0,0.7913 0.39567,1.187 0.79133,1.187 l 8.04514,0 c 0.79133,0 1.18699,-0.3957 1.18699,-1.187 l 0,-34.9503 12.52932,0 c 0.39567,0 1.18699,-0.3956 1.18699,-1.1869 l 0,-7.2539 c 0,-0.3956 -0.79132,-0.7913 -1.18699,-0.7913 l -35.47776,0 z m -34.15885,0 c -0.39567,0 -0.79133,0 -0.79133,0.3957 l -15.16708,21.4977 0,1.1869 15.16708,21.8934 c 0,0 0.39566,0.3957 0.79133,0.3957 l 8.70458,0 c 0.79132,0 1.58265,-1.187 0.79132,-1.5827 l -14.50763,-21.102 14.50763,-21.102 c 0.79133,-0.7914 0,-1.5827 -0.79132,-1.5827 l -8.70458,0 0,0 z m -28.61962,0 c -0.39566,0 -0.79132,0.3957 -0.79132,0.7913 l 0,43.3911 c 0,0.7913 0.39566,1.187 0.79132,1.187 l 8.04515,0 c 0.79132,0 1.18699,-0.3957 1.18699,-1.187 l 0,-43.3911 c 0,-0.3956 -0.39567,-0.7913 -1.18699,-0.7913 l -8.04515,0 z m -48.66652,0 c -0.39567,0 -0.79133,0.3957 -0.79133,0.7913 l 0,43.3911 c 0,0.7913 0.39566,1.187 0.79133,1.187 l 8.04514,0 c 0.39566,0 1.18699,-0.3957 1.18699,-1.187 l 0,-17.2773 17.80483,0 0,17.2773 c 0,0.7913 0.79132,1.187 1.18698,1.187 l 8.04515,0 c 0.39566,0 0.79132,-0.3957 0.79132,-1.187 l 0,-43.3911 c 0,-0.3956 -0.39566,-0.7913 -0.79132,-0.7913 l -8.04515,0 c -0.39566,0 -1.18698,0.3957 -1.18698,0.7913 l 0,16.8817 -17.80483,0 0,-16.8817 c 0,-0.3956 -0.79133,-0.7913 -1.18699,-0.7913 l -8.04514,0 z m 390.1235,-0.3956 c -0.39566,0 -0.79132,0.3956 -1.0551,0.3956 l -18.20049,43.6548 c -0.39566,0.7913 0.39567,1.5827 0.79133,1.5827 l 7.91326,0 c 0.39566,0 0.79132,-0.3957 1.18698,-0.7914 l 3.82474,-9.6278 18.99182,0 3.82474,9.6278 c 0,0.3957 0.39566,0.7914 0.79133,0.7914 l 8.30892,0 c 0.79132,0 1.18698,-0.7914 0.79132,-1.5827 l -18.20049,-43.6548 c -0.39566,0 -0.79132,-0.3956 -1.0551,-0.3956 l -7.91326,0 0,0 z m -55.12902,0 c -0.39566,0 -0.79132,0.3956 -0.79132,0.7913 l -9.89157,30.3341 -9.10025,-29.9385 c 0,-0.7913 -0.39566,-0.7913 -0.79132,-0.7913 l -8.70459,0 c -0.79132,0 -1.18698,0.3957 -0.79132,1.187 l 14.50764,43.6548 c 0.39566,0.3957 0.79132,0.7913 1.0551,0.7913 l 7.25382,0 c 0.39566,0 0.79132,-0.3956 0.79132,-0.7913 l 9.89157,-29.1472 9.89157,29.1472 c 0,0.3957 0.39567,0.7913 1.18699,0.7913 l 6.85816,0 c 0.79132,0 1.0551,-0.3956 1.0551,-0.7913 l 14.50763,-43.6548 c 0.39567,-0.7913 0,-1.187 -0.79132,-1.187 l -8.30892,0 c -0.39566,0 -0.79133,0 -0.79133,0.7913 l -9.10024,29.9385 -9.89157,-30.3341 c 0,-0.3957 -0.39566,-0.7913 -0.79133,-0.7913 l -7.25382,0 0,0 z m -117.51186,0 c -0.39566,0 -0.79132,0.3956 -0.79132,0.3956 l -18.20049,43.6548 c -0.39566,0.7913 0,1.5827 0.79132,1.5827 l 7.91326,0 c 0.39566,0 0.79133,-0.3957 0.79133,-0.7914 l 3.82474,-9.6278 18.99181,0 3.82474,9.6278 c 0.39567,0.3957 0.79133,0.7914 1.0551,0.7914 l 8.04515,0 c 0.79132,0 1.0551,-0.7914 1.0551,-1.5827 l -18.59615,-43.6548 c 0,0 -0.39567,-0.3956 -0.79133,-0.3956 l -7.91326,0 0,0 z m 258.23594,-0.3957 c -9.10024,0 -15.56274,5.4074 -15.56274,13.8482 0,8.8365 5.67117,11.4742 14.9033,13.8482 7.25382,1.9783 8.70459,3.0334 8.70459,5.803 0,2.6378 -2.24209,4.2204 -6.4625,4.2204 -4.61606,0 -8.70458,-1.5826 -12.52932,-4.616 -0.39566,-0.3957 -1.0551,-0.3957 -1.0551,0 l -4.61607,5.803 c -0.39566,0.3957 -0.39566,0.7914 0,1.187 5.27551,4.6161 11.738,6.4625 18.20049,6.4625 9.49591,0 16.35407,-5.0117 16.35407,-13.8482 l 0,-0.3956 c 0,-7.6495 -4.87984,-11.0786 -13.98009,-13.4526 -8.04514,-1.9783 -9.89157,-3.0334 -9.89157,-5.803 l 0,-0.3957 c 0,-1.9783 2.24209,-3.8247 6.06683,-3.8247 3.42908,0 6.85816,1.5826 10.6829,3.8247 0.39566,0.3957 1.0551,0.3957 1.58265,0 l 3.82474,-6.1987 c 0.39566,-0.3957 0.39566,-1.187 0,-1.187 -4.87984,-3.2972 -10.15535,-5.2755 -16.22218,-5.2755 l 0,0 z m -455.1441,-44.4461 56.71168,0 0,9.6278 -56.71168,0 0,-9.6278 z m 299.25295,-10.0235 22.42089,0 0,6.1987 -22.42089,0 0,-6.1987 z m -36.92853,0 22.81655,0 0,6.1987 -22.81655,0 0,-6.1987 z m -137.295,-8.0451 c -0.79133,0 -1.58265,0.3956 -1.58265,0.7913 l -12.52933,34.1589 c 0,0.7913 0.39567,1.5826 1.18699,1.5826 l 13.71631,0 c 0.79133,0 1.18699,-0.3956 1.58265,-1.187 l 12.52933,-34.1588 c 0,-0.3957 -0.39567,-1.187 -0.79133,-1.187 l -14.11197,0 0,0 z m -125.02942,0 56.71168,0 0,9.6278 -56.71168,0 0,-9.6278 z m 157.34188,-2.6378 29.67471,0 0,10.6829 -29.67471,0 0,-10.6829 z m 141.91107,-2.374 22.42089,0 0,5.8031 -22.42089,0 0,-5.8031 z m -36.92853,0 22.81655,0 0,5.8031 -22.81655,0 0,-5.8031 z m 168.81614,-4.8798 23.21222,0 0,8.4408 -23.21222,0 0,-8.4408 z m -37.71986,0 23.60788,0 0,8.4408 -23.60788,0 0,-8.4408 z M 606.70825,55.5231 c -0.39566,0 -1.0551,0.7913 -1.0551,1.9783 l 0,4.2204 -29.67471,0 c -1.84643,0 -3.82474,0.7914 -4.87984,2.2421 -1.18699,1.187 -1.58265,3.0334 -1.58265,5.0118 l 0,19.5193 c 0,2.2421 0.39566,4.2204 1.58265,5.4074 1.0551,1.187 2.63775,1.9783 4.87984,1.9783 l 29.67471,0 0,5.8031 c 0,3.0334 0.79133,5.4074 2.24209,6.8581 1.58265,1.5827 3.42908,2.2421 6.46249,2.2421 l 41.80838,0 c 0.79132,0 1.84642,-0.7913 2.63775,-1.5826 l 2.24209,-4.6161 c 0.39566,-0.3956 0,-1.187 -0.79133,-1.187 l -40.62138,0 0,-7.6495 29.27905,0 c 1.97831,0 3.82474,-0.7913 5.01173,-1.9783 1.0551,-1.187 1.84642,-3.0334 1.84642,-5.4074 l 0,-19.5193 c 0,-2.2421 -0.79132,-4.2204 -1.84642,-5.4074 -1.18699,-1.187 -3.03342,-1.9783 -5.01173,-1.9783 l -29.27905,0 0,-4.6161 c 0,-0.3957 -0.39566,-1.5827 -1.45077,-1.5827 l -11.47422,0 z m -122.78736,-2.7696 16.35406,0 7.64948,10.0234 -30.72981,0 6.72627,-10.0234 z m 140.19653,-2.6378 c -0.79133,0 -1.45077,0.3957 -1.45077,1.187 l 0,4.6161 c 0,0.3956 0.79133,1.187 1.45077,1.187 l 17.93671,0 c 0.39567,0 1.18699,-0.7914 1.18699,-1.5827 l 0,-4.2204 c 0,-0.7913 -0.79132,-1.187 -1.58265,-1.187 l -17.54105,0 0,0 z m -41.01705,0 c -0.39566,0 -1.18699,0.3957 -1.18699,1.187 l 0,4.6161 c 0,0.3956 0.79133,1.187 1.45077,1.187 l 17.54105,0 c 0.79132,0 1.45076,-0.7914 1.45076,-1.5827 l 0,-4.2204 c 0,-0.7913 -0.79132,-1.187 -1.45076,-1.187 l -17.80483,0 0,0 z m 168.42048,-2.6377 23.21222,0 0,8.4408 -23.21222,0 0,-8.4408 z m -37.71986,0 23.60788,0 0,8.4408 -23.60788,0 0,-8.4408 z M 319.98463,46.6867 c -0.39566,0 -0.79132,0.7913 -1.58265,1.1869 l -19.25559,21.3658 c -0.39566,0.3957 0,1.187 0.79132,1.187 l 6.4625,0 c -0.39567,0.7913 -0.39567,1.9783 -0.39567,3.0334 l 0,29.5429 c 0,1.9783 0.79133,3.8247 1.84643,5.0117 1.58265,1.5826 3.42908,2.6377 6.06683,2.6377 l 69.241,0 c 2.63775,0 4.87984,-0.7913 6.46249,-2.242 1.18699,-1.187 1.84639,-3.0335 1.84639,-5.4074 l 0,-30.7299 c 0,-0.7913 0,-1.5826 -0.39563,-1.9783 l 8.04511,0 c 0.39566,0 1.18698,-0.7913 0.79132,-1.187 l -19.7831,-21.4976 c -0.39566,-0.3957 -1.18699,-1.187 -1.84643,-1.187 l -13.8482,0 c -0.79132,0 -1.18698,1.5826 -0.79132,1.9783 l 15.16707,16.8816 -59.34942,0 15.82651,-16.7497 c 0.39567,-0.3957 -0.39566,-1.9783 -0.79132,-1.9783 l -14.50764,0 0,0.1319 z m 112.50009,-3.0335 c -0.79132,0 -1.18699,1.187 -1.18699,1.5827 l 9.49591,21.4977 c 0.39566,0.3956 0.79133,0.3956 1.58265,0.3956 l 13.71631,0 c 0.79133,0 1.18699,-0.3956 0.79133,-1.187 l -9.89157,-21.4976 c 0,-0.3957 -0.79133,-0.7914 -1.58265,-0.7914 l -12.92499,0 z m 191.6327,-4.2204 c -0.79133,0 -1.45077,0.3957 -1.45077,1.187 l 0,4.6161 c 0,0.7913 0.79133,1.187 1.45077,1.187 l 17.93671,0 c 0.39567,0 1.18699,-0.3957 1.18699,-1.5827 l 0,-4.2204 c 0,-0.3956 -0.79132,-1.187 -1.58265,-1.187 l -17.54105,0 0,0 z m -41.01705,0 c -0.39566,0 -1.18699,0.3957 -1.18699,1.187 l 0,4.6161 c 0,0.7913 0.79133,1.187 1.45077,1.187 l 17.54105,0 c 0.79132,0 1.45076,-0.3957 1.45076,-1.5827 l 0,-4.2204 c 0,-0.3956 -0.79132,-1.187 -1.45076,-1.187 l -17.80483,0 0,0 z m -97.72872,-5.803 14.50764,0 0,10.2872 -14.50764,0 0,-10.2872 z m 82.82542,-18.7281 c -0.79132,0 -1.0551,0.3957 -1.0551,1.187 l 0,5.0118 c 0,0.3956 0.79133,1.187 1.0551,1.187 l 37.32419,0 0,5.803 -31.52113,0 c -2.63776,0 -5.01173,0.7913 -6.4625,2.2421 -1.58265,1.5826 -2.24209,3.4291 -2.24209,5.803 l 0,14.5077 c 0,0.7913 0.79133,1.5826 1.58266,1.5826 l 11.07855,0 c 0.79133,0 1.05511,-0.7913 1.05511,-1.5826 l 0,-15.299 26.64129,0 0,16.486 c 0,0.7913 0.39566,1.5826 1.0551,1.5826 l 11.738,0 c 0.39566,0 1.0551,-0.7913 1.0551,-1.5826 l 0,-16.486 26.24564,0 0,15.299 c 0,0.7913 0.79132,1.5826 1.45076,1.5826 l 11.07856,0 c 0.79132,0 1.0551,-0.7913 1.0551,-1.5826 l 0,-14.5077 c 0,-2.6377 -0.39566,-4.616 -1.58265,-5.803 -1.58265,-1.5827 -3.82474,-2.2421 -6.85816,-2.2421 l -31.52114,0 0,-5.9349 36.13721,0 c 0.79132,0 1.45076,-0.7914 1.45076,-1.5827 l 0,-4.6161 c 0,-0.7913 -0.79132,-1.1869 -1.45076,-1.1869 l -87.3096,0 0,0.1318 z m -95.7504,-1.1869 c -0.39567,0 -1.18699,0.3956 -1.18699,0.7913 l 0,10.4191 -11.07856,0 c -0.79133,0 -1.45076,0.3957 -1.45076,1.187 l 0,6.4625 c 0,0.3956 0.79132,1.187 1.45076,1.187 l 11.07856,0 0,10.2872 -14.50764,0 c -0.39566,0 -1.18699,0.3957 -1.18699,1.187 l 0,6.4625 c 0,0.3956 0.79133,1.187 1.18699,1.187 l 11.738,0 -13.32065,17.2772 c -0.39566,0.7914 0,1.5827 0.79133,1.5827 l 7.64948,0 0,31.3893 c 0,2.242 0.79132,4.2204 2.24209,5.4073 1.18699,1.5827 2.63775,2.2421 4.61606,2.2421 l 55.52469,0 c 0.39566,0 0.79132,0 1.18698,-0.3956 l 3.42908,-7.2538 c 0,-0.3957 -0.39566,-1.187 -0.79132,-1.187 l -52.09561,0 0,-11.2105 36.53287,0 c 2.24209,0 4.08852,-0.7913 5.2755,-1.9783 1.58265,-1.5827 1.84643,-3.4291 1.84643,-5.4074 l 0,-12.6612 7.64948,0 c 0.79133,0 1.18699,-0.7913 0.79133,-1.187 l -12.52933,-16.8816 10.94668,0 c 0.79132,0 1.97831,-0.3957 1.97831,-1.187 l 0,-6.4625 c 0,-0.3956 -1.18699,-1.187 -1.97831,-1.187 l -14.50764,0 0,-10.2872 11.07856,0 c 0.39566,0 1.45076,-0.7913 1.45076,-1.5827 l 0,-6.1987 c 0,-0.7913 -0.79132,-1.187 -1.45076,-1.187 l -11.07856,0 0,-10.0234 c 0,-0.7913 -0.39566,-1.187 -1.0551,-1.187 l -11.738,0 c -0.39566,0 -1.18699,0.3957 -1.18699,1.187 l 0,10.0234 -14.50763,0 0,-10.4191 c 0,-0.3956 -0.39567,-0.7913 -1.18699,-0.7913 l -11.60611,0 z m -39.56629,0 c -0.39566,0 -1.18698,0.7913 -1.18698,1.1869 l 9.4959,22.6847 c 0.39567,0.7913 1.18699,0.7913 1.84643,0.7913 l 13.71631,0 c 0.79133,0 1.18699,-0.7913 0.79133,-1.5826 L 447.25613,14.2423 c 0,-0.3956 -1.18698,-0.3956 -1.58265,-0.3956 l -12.7931,-0.1319 0,0 z m -52.35934,0 c -0.79132,0 -1.45076,0.7913 -1.45076,1.1869 l -0.39566,2.2421 -73.4614,0 c -0.79133,0 -1.58265,0.7914 -1.58265,1.187 l 0,6.4625 c 0,0.3957 0.79132,1.187 1.58265,1.187 l 37.1923,0 0,9.2321 -39.56628,0 c -0.39566,0 -1.18699,0.3957 -1.18699,0.7914 l 0,6.4624 c 0,0.7914 0.79133,1.187 1.58265,1.187 l 39.17062,0 0,16.7498 c 0,0.7913 0.39567,1.5826 1.18699,1.5826 l 11.738,0 c 0.79133,0 1.18699,-0.7913 1.18699,-1.5826 l 0,-16.8816 39.17058,0 c 0.39566,0 1.18699,-0.3957 1.18699,-1.5827 l 0,-5.8031 c 0,-0.7913 -0.79133,-1.1869 -1.45077,-1.1869 l -38.9068,0 0,-9.2322 29.27905,0 c 1.58265,0 3.82474,-0.3956 5.2755,-1.187 1.58261,-1.1869 2.63771,-2.242 3.42904,-4.2204 l 1.18699,-5.803 c 0.39566,-0.7913 -0.39566,-1.187 -0.79133,-1.187 l -14.37571,0 z m 358.07482,-0.3957 c -0.79132,0 -1.18699,0.7913 -1.18699,1.5826 l 0,7.2539 -39.56628,0 c -0.39566,0 -1.0551,0.3956 -1.0551,0.7913 l 0,6.4625 c 0,0.7913 0.79133,1.187 1.45076,1.187 l 39.17062,0 0,8.0451 -29.67471,0 c -2.24209,0 -4.61606,1.187 -5.67117,2.6378 -1.58265,1.5826 -2.24209,3.429 -2.24209,5.4074 l 0,27.1688 c 0,1.9783 0.79133,3.8247 1.84643,5.0117 1.58265,1.9783 3.82474,2.6378 6.06683,2.6378 l 29.67471,0 0,8.0451 -41.01704,0 c -0.79133,0 -1.45077,0.3957 -1.45077,1.187 l 0,6.1987 c 0,0.7914 0.79133,1.187 1.45077,1.187 l 41.01704,0 0,10.6829 c 0,0.7913 0.39567,1.9783 1.18699,1.9783 l 11.86989,0 c 0.39566,0 1.0551,-1.187 1.0551,-1.9783 l 0,-10.6829 40.22572,0 c 0.79132,0 1.58265,-0.3956 1.58265,-1.5826 l 0,-5.8031 c 0,-0.7913 -0.79133,-1.187 -1.58265,-1.187 l -40.22572,0 0,-8.0451 29.27905,0 c 2.63775,0 4.61606,-0.7913 6.06683,-2.2421 1.0551,-1.187 1.84642,-2.6378 1.84642,-5.4074 l 0,-28.3558 c 0,-1.9783 -1.0551,-3.8248 -2.63775,-5.0118 -1.58265,-1.187 -3.42908,-1.9783 -5.2755,-1.9783 l -29.27905,0 0,-8.0451 38.77495,0 c 0.79133,0 1.45077,-0.3957 1.45077,-1.5827 l 0,-5.803 c 0,-0.7913 -0.79133,-1.187 -1.45077,-1.187 l -38.77495,0 0,-7.2538 c 0,-0.7913 -0.79133,-1.5827 -1.58265,-1.5827 l -11.34234,0 0,0.2638 z"
     id="path3465" /></svg>